<svg width="22" height="22" viewBox="0 0 22 22" fill="none" xmlns="http://www.w3.org/2000/svg">
<g clip-path="url(#clip0_75_776)">
<path d="M13.0064 21.4524C12.9009 21.4566 12.8334 21.465 12.7659 21.465C11.3231 21.465 9.88453 21.4608 8.44172 21.4692C8.23922 21.4692 8.18437 21.4144 8.18437 21.2119C8.18859 17.8538 8.18859 14.4914 8.18859 11.1333C8.18859 11.0447 8.18859 10.9561 8.18859 10.8422C7.4039 10.8422 6.64031 10.8422 5.86406 10.8422C5.86406 9.64407 5.86406 8.46704 5.86406 7.25626C5.94422 7.25626 6.02015 7.25626 6.09187 7.25626C6.72468 7.25626 7.3575 7.25204 7.99031 7.26048C8.15062 7.26048 8.19281 7.21407 8.19281 7.05798C8.18437 6.1172 8.18437 5.1722 8.19281 4.23142C8.19703 3.57329 8.3025 2.93204 8.60625 2.3372C9.04078 1.49767 9.72843 0.953448 10.5975 0.615948C11.3062 0.337511 12.053 0.236261 12.8039 0.223604C14.0273 0.206729 15.2508 0.215167 16.4742 0.210948C16.5881 0.210948 16.6809 0.206729 16.6809 0.367042C16.6767 1.5272 16.6767 2.68735 16.6767 3.84751C16.6767 3.86017 16.6725 3.87282 16.6556 3.92767C16.5839 3.92767 16.5037 3.92767 16.4236 3.92767C15.6642 3.92767 14.9048 3.92345 14.1455 3.92767C13.7067 3.92767 13.3523 4.10485 13.1287 4.48876C13.0612 4.60267 13.0191 4.75032 13.0191 4.88532C13.0064 5.60251 13.0191 6.3197 13.0106 7.03688C13.0106 7.20563 13.0612 7.25204 13.2258 7.25204C14.2805 7.2436 15.3352 7.24782 16.3898 7.24782C16.4742 7.24782 16.5544 7.24782 16.6978 7.24782C16.5502 8.45438 16.4067 9.63563 16.2591 10.8295C15.1622 10.8295 14.0948 10.8295 13.0064 10.8295C13.0064 14.3775 13.0064 17.9044 13.0064 21.4524Z" fill="#FEFEFE"/>
</g>
<defs>
<clipPath id="clip0_75_776">
<rect width="21.6" height="21.6" fill="white"/>
</clipPath>
</defs>
</svg>
