<svg width="22" height="22" viewBox="0 0 22 22" fill="none" xmlns="http://www.w3.org/2000/svg">
<g clip-path="url(#clip0_75_781)">
<path d="M7.31953 21.461C7.31953 21.3597 7.31953 21.2627 7.31953 21.1657C7.31953 16.6221 7.31953 12.0827 7.31953 7.53911C7.31953 7.41254 7.31109 7.31129 7.49672 7.31129C8.83828 7.31973 10.1841 7.31551 11.5256 7.31551C11.5594 7.31551 11.5931 7.32395 11.648 7.33239C11.648 7.92301 11.648 8.5052 11.648 9.09161C11.6648 9.09582 11.6775 9.10426 11.6944 9.10848C11.8631 8.88911 12.0234 8.66129 12.2006 8.44614C12.7153 7.81332 13.3608 7.34926 14.1202 7.07083C14.5336 6.91895 14.985 6.82614 15.4195 6.80504C16.0186 6.77973 16.6303 6.78817 17.2209 6.88942C18.1913 7.05395 19.0477 7.48426 19.7564 8.18879C20.4272 8.85114 20.8702 9.64848 21.1106 10.5471C21.2372 11.0238 21.3173 11.5132 21.3933 11.9983C21.4439 12.3358 21.4692 12.6818 21.4692 13.0193C21.4734 15.7614 21.4734 18.5036 21.4734 21.2458C21.4734 21.3133 21.4692 21.3808 21.465 21.4694C21.3848 21.4694 21.3173 21.4694 21.2498 21.4694C19.9547 21.4694 18.6638 21.4652 17.3686 21.4736C17.1534 21.4736 17.1155 21.4019 17.1155 21.2079C17.1197 18.685 17.1281 16.158 17.1113 13.6352C17.107 13.1922 17.0648 12.7324 16.9509 12.3063C16.7442 11.5596 16.2717 11.0196 15.5208 10.7454C14.888 10.5133 14.2467 10.4711 13.597 10.6357C12.8798 10.8171 12.3863 11.2938 12.015 11.9224C11.7281 12.4075 11.6733 12.9433 11.6691 13.4791C11.6522 16.0399 11.6606 18.5964 11.6606 21.1572C11.6606 21.2543 11.6606 21.3513 11.6606 21.4568C10.2052 21.461 8.775 21.461 7.31953 21.461Z" fill="#FEFEFE"/>
<path d="M4.60266 14.4533C4.60266 16.7019 4.59844 18.9505 4.60688 21.1991C4.60688 21.4016 4.56469 21.4776 4.34109 21.4733C3.05438 21.4607 1.76766 21.4607 0.480938 21.4733C0.270001 21.4733 0.223595 21.4016 0.223595 21.2076C0.227813 16.6893 0.227813 12.1668 0.223595 7.6485C0.223595 7.46709 0.27422 7.40381 0.459845 7.40381C1.75922 7.41225 3.05859 7.41225 4.36219 7.40381C4.56469 7.40381 4.60266 7.47975 4.60266 7.66115C4.60266 9.92662 4.60266 12.1921 4.60266 14.4533Z" fill="#FEFEFE"/>
<path d="M2.36672 0.20247C3.75469 0.16872 4.58578 1.177 4.59 2.4131C4.59422 3.67872 3.70828 4.62372 2.31609 4.6195C1.02094 4.6195 0.105468 3.69138 0.109687 2.37935C0.113906 1.15169 1.00406 0.160283 2.36672 0.20247Z" fill="#FEFEFE"/>
</g>
<defs>
<clipPath id="clip0_75_781">
<rect width="21.6" height="21.6" fill="white"/>
</clipPath>
</defs>
</svg>
