<svg width="22" height="22" viewBox="0 0 22 22" fill="none" xmlns="http://www.w3.org/2000/svg">
<g clip-path="url(#clip0_75_799)">
<path d="M21.3047 10.842C21.3047 12.3102 21.2752 13.7825 21.3131 15.2506C21.3764 17.8494 19.7437 19.8575 17.6639 20.7519C16.8286 21.1105 15.9511 21.3003 15.0441 21.3003C12.2048 21.3045 9.3614 21.3425 6.52219 21.2877C4.38328 21.2455 2.62406 20.3511 1.36265 18.5877C0.70031 17.6595 0.383904 16.6048 0.383904 15.4616C0.383904 12.4367 0.383904 9.4161 0.383904 6.39125C0.383904 3.92328 1.58625 2.19781 3.72094 1.07563C4.64906 0.590471 5.65734 0.383752 6.70781 0.379534C9.46265 0.379534 12.2217 0.362659 14.9766 0.387971C17.1155 0.404846 18.9 1.22328 20.2162 2.94453C20.9503 3.90641 21.3047 5.01172 21.3047 6.22672C21.3047 7.76235 21.3047 9.30219 21.3047 10.842ZM1.94062 10.842C1.94062 12.3903 1.94062 13.9344 1.94062 15.4827C1.94062 16.1745 2.10093 16.8242 2.45953 17.4106C3.40031 18.9505 4.82203 19.7014 6.58547 19.7309C9.41625 19.7731 12.2512 19.7478 15.0862 19.7394C15.7823 19.7394 16.4573 19.5959 17.0859 19.2964C18.7987 18.478 19.7564 17.1744 19.748 15.2169C19.7311 12.2216 19.7437 9.22625 19.7437 6.23094C19.7437 5.38297 19.5033 4.60672 19.0012 3.92328C18.0309 2.61125 16.6894 1.96578 15.0862 1.94891C12.2597 1.91516 9.43312 1.93625 6.60656 1.94047C6.00328 1.94047 5.42109 2.06281 4.85578 2.27375C3.30328 2.85172 1.86047 4.31563 1.92797 6.47141C1.97859 7.9311 1.94062 9.38657 1.94062 10.842Z" fill="#FEFEFE"/>
<path d="M10.8675 15.314C8.1464 15.314 5.95265 13.1455 5.94843 10.4455C5.94421 7.78772 8.15484 5.61085 10.8591 5.61085C13.5717 5.60663 15.7739 7.77928 15.7781 10.4582C15.7781 13.1329 13.5802 15.3098 10.8675 15.314ZM10.8675 13.753C12.7195 13.753 14.2214 12.2723 14.2172 10.4498C14.213 8.64413 12.7111 7.16756 10.8675 7.16756C9.01546 7.16756 7.50515 8.63991 7.50515 10.4582C7.50937 12.2807 9.01546 13.7573 10.8675 13.753Z" fill="#FEFEFE"/>
<path d="M16.3477 4.13428C16.9172 4.13428 17.3812 4.61943 17.3812 5.21428C17.377 5.80912 16.9087 6.29006 16.3392 6.28584C15.7781 6.28162 15.3183 5.80068 15.3183 5.2185C15.3141 4.62365 15.7781 4.13428 16.3477 4.13428Z" fill="#FEFEFE"/>
</g>
<defs>
<clipPath id="clip0_75_799">
<rect width="21.6" height="21.6" fill="white"/>
</clipPath>
</defs>
</svg>
